ffmpeg started on 2025-05-19 at 12:15:01
Report written to "D:\Convert\FFMetrics\reports\ssim_report-6.txt"
Log level: 32
Command line:
ffmpeg -hide_banner -nostdin -i "G:\\\xc0\xed\xe8\xec\xe5\\\xce\xed\xe3\xee\xe8\xed\xe3\xe8\\!_30_\xc2\xe5\xf1\xed\xe0_2023\\DreamCast\\\xd2\xe5\xed\xfc \xeb\xfe\xe1\xe2\xe8 \xe2 \xf2\xe0\xe9\xed\xee\xe9 \xea\xee\xec\xed\xe0\xf2\xe5\\[DC] Aiyou de Mishi - 04_Telegram_HEVC.mkv" -i "G:\\\xc0\xed\xe8\xec\xe5\\\xce\xed\xe3\xee\xe8\xed\xe3\xe8\\!_30_\xc2\xe5\xf1\xed\xe0_2023\\DreamCast\\\xd2\xe5\xed\xfc \xeb\xfe\xe1\xe2\xe8 \xe2 \xf2\xe0\xe9\xed\xee\xe9 \xea\xee\xec\xed\xe0\xf2\xe5\\[DC] Aiyou de Mishi - 04_Telegram.mp4" -lavfi "[0:v]settb=AVTB,setpts=PTS-STARTPTS,format=pix_fmts=yuv420p10,fps=24/1,scale=1920:1080:flags=bicubic[main];[1:v]settb=AVTB,setpts=PTS-STARTPTS,format=pix_fmts=yuv420p,fps=24/1,scale=1920:1080:flags=bicubic[ref];[main][ref]ssim=eof_action=endall:stats_file='D\\:/Convert/FFMetrics/logs/ssim_logfile-6.txt'" -f null -
Input #0, matroska,webm, from 'G:\Аниме\Онгоинги\!_30_Весна_2023\DreamCast\Тень любви в тайной комнате\[DC] Aiyou de Mishi - 04_Telegram_HEVC.mkv':
  Metadata:
    COMPATIBLE_BRANDS: isomiso2avc1mp41
    MAJOR_BRAND     : isom
    MINOR_VERSION   : 512
    ENCODER         : Lavf61.7.100
  Duration: 00:18:07.62, start: -0.021000, bitrate: 1174 kb/s
  Stream #0:0: Video: hevc (Main 10), yuv420p10le(tv, bt709, progressive), 1920x1080 [SAR 1:1 DAR 16:9], 24 fps, 24 tbr, 1k tbn (default)
      Metadata:
        HANDLER_NAME    : VideoHandler
        VENDOR_ID       : [0][0][0][0]
        ENCODER         : Lavc61.19.100 libx265
        BPS             : 974345
        DURATION        : 00:18:07.499666666
        NUMBER_OF_FRAMES: 26100
        NUMBER_OF_BYTES : 132449911
        _STATISTICS_WRITING_APP: mkvpropedit v66.0.0 ('Josie') 64-bit
        _STATISTICS_WRITING_DATE_UTC: 2025-05-19 07:22:53
        _STATISTICS_TAGS: BPS DURATION NUMBER_OF_FRAMES NUMBER_OF_BYTES
  Stream #0:1: Audio: aac (LC), 48000 Hz, stereo, fltp (default)
      Metadata:
        HANDLER_NAME    : SoundHandler
        VENDOR_ID       : [0][0][0][0]
        ENCODER         : Lavc61.19.100 aac
        BPS             : 196274
        DURATION        : 00:18:07.594000000
        NUMBER_OF_FRAMES: 50982
        NUMBER_OF_BYTES : 26683319
        _STATISTICS_WRITING_APP: mkvpropedit v66.0.0 ('Josie') 64-bit
        _STATISTICS_WRITING_DATE_UTC: 2025-05-19 07:22:53
        _STATISTICS_TAGS: BPS DURATION NUMBER_OF_FRAMES NUMBER_OF_BYTES
Input #1, mov,mp4,m4a,3gp,3g2,mj2, from 'G:\Аниме\Онгоинги\!_30_Весна_2023\DreamCast\Тень любви в тайной комнате\[DC] Aiyou de Mishi - 04_Telegram.mp4':
  Metadata:
    major_brand     : isom
    minor_version   : 512
    compatible_brands: isomiso2avc1mp41
    encoder         : Lavf60.4.101
  Duration: 00:18:07.59, start: 0.000000, bitrate: 2852 kb/s
  Stream #1:0[0x1](und): Video: h264 (Main) (avc1 / 0x31637661), yuv420p(tv, bt709, progressive), 1920x1080 [SAR 1:1 DAR 16:9], 2650 kb/s, 24 fps, 24 tbr, 12288 tbn (default)
      Metadata:
        handler_name    : VideoHandler
        vendor_id       : [0][0][0][0]
        encoder         : Lavc60.9.100 h264_qsv
  Stream #1:1[0x2](und): Audio: aac (LC) (mp4a / 0x6134706D), 48000 Hz, stereo, fltp, 196 kb/s (default)
      Metadata:
        handler_name    : SoundHandler
        vendor_id       : [0][0][0][0]
Stream mapping:
  Stream #0:0 (hevc) -> settb:default
  Stream #1:0 (h264) -> settb:default
  ssim:default -> Stream #0:0 (wrapped_avframe)
  Stream #0:1 -> #0:1 (aac (native) -> pcm_s16le (native))
Output #0, null, to 'pipe:':
  Metadata:
    COMPATIBLE_BRANDS: isomiso2avc1mp41
    MAJOR_BRAND     : isom
    MINOR_VERSION   : 512
    encoder         : Lavf61.7.100
  Stream #0:0: Video: wrapped_avframe, yuv420p10le(tv, bt709, progressive), 1920x1080 [SAR 1:1 DAR 16:9], q=2-31, 200 kb/s, 24 fps, 24 tbn
      Metadata:
        encoder         : Lavc61.19.100 wrapped_avframe
  Stream #0:1: Audio: pcm_s16le, 48000 Hz, stereo, s16, 1536 kb/s (default)
      Metadata:
        HANDLER_NAME    : SoundHandler
        VENDOR_ID       : [0][0][0][0]
        _STATISTICS_TAGS: BPS DURATION NUMBER_OF_FRAMES NUMBER_OF_BYTES
        BPS             : 196274
        DURATION        : 00:18:07.594000000
        NUMBER_OF_FRAMES: 50982
        NUMBER_OF_BYTES : 26683319
        _STATISTICS_WRITING_APP: mkvpropedit v66.0.0 ('Josie') 64-bit
        _STATISTICS_WRITING_DATE_UTC: 2025-05-19 07:22:53
        encoder         : Lavc61.19.100 pcm_s16le
frame=  179 fps=0.0 q=-0.0 size=N/A time=00:00:07.45 bitrate=N/A speed=14.5x    frame=  378 fps=364 q=-0.0 size=N/A time=00:00:15.75 bitrate=N/A speed=15.2x    frame=  632 fps=409 q=-0.0 size=N/A time=00:00:26.33 bitrate=N/A speed=  17x    frame=  874 fps=423 q=-0.0 size=N/A time=00:00:36.41 bitrate=N/A speed=17.6x    frame= 1117 fps=434 q=-0.0 size=N/A time=00:00:46.54 bitrate=N/A speed=18.1x    frame= 1337 fps=432 q=-0.0 size=N/A time=00:00:55.70 bitrate=N/A speed=  18x    frame= 1528 fps=424 q=-0.0 size=N/A time=00:01:03.66 bitrate=N/A speed=17.7x    frame= 1679 fps=407 q=-0.0 size=N/A time=00:01:09.95 bitrate=N/A speed=16.9x    frame= 1902 fps=410 q=-0.0 size=N/A time=00:01:19.25 bitrate=N/A speed=17.1x    frame= 2083 fps=404 q=-0.0 size=N/A time=00:01:26.79 bitrate=N/A speed=16.8x    frame= 2230 fps=394 q=-0.0 size=N/A time=00:01:32.91 bitrate=N/A speed=16.4x    frame= 2448 fps=395 q=-0.0 size=N/A time=00:01:42.00 bitrate=N/A speed=16.5x    frame= 2676 fps=399 q=-0.0 size=N/A time=00:01:51.50 bitrate=N/A speed=16.6x    frame= 2877 fps=398 q=-0.0 size=N/A time=00:01:59.87 bitrate=N/A speed=16.6x    frame= 3036 fps=393 q=-0.0 size=N/A time=00:02:06.50 bitrate=N/A speed=16.4x    frame= 3268 fps=396 q=-0.0 size=N/A time=00:02:16.16 bitrate=N/A speed=16.5x    frame= 3534 fps=403 q=-0.0 size=N/A time=00:02:27.25 bitrate=N/A speed=16.8x    frame= 3793 fps=408 q=-0.0 size=N/A time=00:02:38.04 bitrate=N/A speed=  17x    frame= 4054 fps=414 q=-0.0 size=N/A time=00:02:48.91 bitrate=N/A speed=17.2x    frame= 4331 fps=420 q=-0.0 size=N/A time=00:03:00.45 bitrate=N/A speed=17.5x    frame= 4567 fps=422 q=-0.0 size=N/A time=00:03:10.29 bitrate=N/A speed=17.6x    frame= 4826 fps=425 q=-0.0 size=N/A time=00:03:21.08 bitrate=N/A speed=17.7x    frame= 5066 fps=427 q=-0.0 size=N/A time=00:03:31.08 bitrate=N/A speed=17.8x    frame= 5322 fps=430 q=-0.0 size=N/A time=00:03:41.75 bitrate=N/A speed=17.9x    frame= 5567 fps=432 q=-0.0 size=N/A time=00:03:51.95 bitrate=N/A speed=  18x    frame= 5843 fps=436 q=-0.0 size=N/A time=00:04:03.45 bitrate=N/A speed=18.2x    frame= 6115 fps=439 q=-0.0 size=N/A time=00:04:14.79 bitrate=N/A speed=18.3x    frame= 6394 fps=443 q=-0.0 size=N/A time=00:04:26.41 bitrate=N/A speed=18.4x    frame= 6630 fps=443 q=-0.0 size=N/A time=00:04:36.25 bitrate=N/A speed=18.5x    frame= 6868 fps=444 q=-0.0 size=N/A time=00:04:46.16 bitrate=N/A speed=18.5x    frame= 7092 fps=444 q=-0.0 size=N/A time=00:04:55.50 bitrate=N/A speed=18.5x    frame= 7363 fps=446 q=-0.0 size=N/A time=00:05:06.79 bitrate=N/A speed=18.6x    frame= 7596 fps=447 q=-0.0 size=N/A time=00:05:16.50 bitrate=N/A speed=18.6x    frame= 7842 fps=447 q=-0.0 size=N/A time=00:05:26.75 bitrate=N/A speed=18.6x    frame= 8077 fps=447 q=-0.0 size=N/A time=00:05:36.54 bitrate=N/A speed=18.6x    frame= 8358 fps=450 q=-0.0 size=N/A time=00:05:48.25 bitrate=N/A speed=18.8x    frame= 8639 fps=453 q=-0.0 size=N/A time=00:05:59.95 bitrate=N/A speed=18.9x    frame= 8902 fps=454 q=-0.0 size=N/A time=00:06:10.91 bitrate=N/A speed=18.9x    frame= 9154 fps=455 q=-0.0 size=N/A time=00:06:21.41 bitrate=N/A speed=  19x    frame= 9430 fps=457 q=-0.0 size=N/A time=00:06:32.91 bitrate=N/A speed=  19x    frame= 9693 fps=459 q=-0.0 size=N/A time=00:06:43.87 bitrate=N/A speed=19.1x    frame= 9969 fps=460 q=-0.0 size=N/A time=00:06:55.37 bitrate=N/A speed=19.2x    frame=10228 fps=461 q=-0.0 size=N/A time=00:07:06.16 bitrate=N/A speed=19.2x    frame=10458 fps=461 q=-0.0 size=N/A time=00:07:15.75 bitrate=N/A speed=19.2x    frame=10716 fps=462 q=-0.0 size=N/A time=00:07:26.50 bitrate=N/A speed=19.2x    frame=10976 fps=463 q=-0.0 size=N/A time=00:07:37.33 bitrate=N/A speed=19.3x    frame=11246 fps=464 q=-0.0 size=N/A time=00:07:48.58 bitrate=N/A speed=19.3x    frame=11524 fps=466 q=-0.0 size=N/A time=00:08:00.16 bitrate=N/A speed=19.4x    frame=11801 fps=467 q=-0.0 size=N/A time=00:08:11.70 bitrate=N/A speed=19.5x    frame=12071 fps=468 q=-0.0 size=N/A time=00:08:22.95 bitrate=N/A speed=19.5x    frame=12342 fps=469 q=-0.0 size=N/A time=00:08:34.25 bitrate=N/A speed=19.5x    frame=12573 fps=469 q=-0.0 size=N/A time=00:08:43.87 bitrate=N/A speed=19.5x    frame=12840 fps=470 q=-0.0 size=N/A time=00:08:55.00 bitrate=N/A speed=19.6x    frame=13106 fps=471 q=-0.0 size=N/A time=00:09:06.08 bitrate=N/A speed=19.6x    frame=13358 fps=471 q=-0.0 size=N/A time=00:09:16.58 bitrate=N/A speed=19.6x    frame=13613 fps=472 q=-0.0 size=N/A time=00:09:27.20 bitrate=N/A speed=19.6x    frame=13876 fps=472 q=-0.0 size=N/A time=00:09:38.16 bitrate=N/A speed=19.7x    frame=14132 fps=473 q=-0.0 size=N/A time=00:09:48.83 bitrate=N/A speed=19.7x    frame=14364 fps=472 q=-0.0 size=N/A time=00:09:58.50 bitrate=N/A speed=19.7x    frame=14582 fps=471 q=-0.0 size=N/A time=00:10:07.58 bitrate=N/A speed=19.6x    frame=14803 fps=471 q=-0.0 size=N/A time=00:10:16.79 bitrate=N/A speed=19.6x    frame=15011 fps=470 q=-0.0 size=N/A time=00:10:25.45 bitrate=N/A speed=19.6x    frame=15263 fps=470 q=-0.0 size=N/A time=00:10:35.95 bitrate=N/A speed=19.6x    frame=15510 fps=470 q=-0.0 size=N/A time=00:10:46.25 bitrate=N/A speed=19.6x    frame=15785 fps=471 q=-0.0 size=N/A time=00:10:57.70 bitrate=N/A speed=19.6x    frame=16040 fps=471 q=-0.0 size=N/A time=00:11:08.33 bitrate=N/A speed=19.6x    frame=16316 fps=472 q=-0.0 size=N/A time=00:11:19.83 bitrate=N/A speed=19.7x    frame=16591 fps=473 q=-0.0 size=N/A time=00:11:31.29 bitrate=N/A speed=19.7x    frame=16854 fps=474 q=-0.0 size=N/A time=00:11:42.25 bitrate=N/A speed=19.7x    frame=17144 fps=475 q=-0.0 size=N/A time=00:11:54.33 bitrate=N/A speed=19.8x    frame=17397 fps=475 q=-0.0 size=N/A time=00:12:04.87 bitrate=N/A speed=19.8x    frame=17631 fps=475 q=-0.0 size=N/A time=00:12:14.62 bitrate=N/A speed=19.8x    frame=17893 fps=475 q=-0.0 size=N/A time=00:12:25.54 bitrate=N/A speed=19.8x    frame=18150 fps=476 q=-0.0 size=N/A time=00:12:36.25 bitrate=N/A speed=19.8x    frame=18428 fps=476 q=-0.0 size=N/A time=00:12:47.83 bitrate=N/A speed=19.9x    frame=18692 fps=477 q=-0.0 size=N/A time=00:12:58.83 bitrate=N/A speed=19.9x    frame=18967 fps=478 q=-0.0 size=N/A time=00:13:10.29 bitrate=N/A speed=19.9x    frame=19223 fps=478 q=-0.0 size=N/A time=00:13:20.95 bitrate=N/A speed=19.9x    frame=19490 fps=478 q=-0.0 size=N/A time=00:13:32.08 bitrate=N/A speed=19.9x    frame=19748 fps=479 q=-0.0 size=N/A time=00:13:42.83 bitrate=N/A speed=19.9x    frame=19966 fps=478 q=-0.0 size=N/A time=00:13:51.91 bitrate=N/A speed=19.9x    frame=20235 fps=479 q=-0.0 size=N/A time=00:14:03.12 bitrate=N/A speed=19.9x    frame=20516 fps=479 q=-0.0 size=N/A time=00:14:14.83 bitrate=N/A speed=  20x    frame=20787 fps=480 q=-0.0 size=N/A time=00:14:26.12 bitrate=N/A speed=  20x    frame=21047 fps=480 q=-0.0 size=N/A time=00:14:36.95 bitrate=N/A speed=  20x    frame=21334 fps=481 q=-0.0 size=N/A time=00:14:48.91 bitrate=N/A speed=  20x    frame=21625 fps=482 q=-0.0 size=N/A time=00:15:01.04 bitrate=N/A speed=20.1x    frame=21883 fps=482 q=-0.0 size=N/A time=00:15:11.79 bitrate=N/A speed=20.1x    frame=22124 fps=482 q=-0.0 size=N/A time=00:15:21.83 bitrate=N/A speed=20.1x    frame=22388 fps=482 q=-0.0 size=N/A time=00:15:32.83 bitrate=N/A speed=20.1x    frame=22656 fps=483 q=-0.0 size=N/A time=00:15:44.00 bitrate=N/A speed=20.1x    frame=22913 fps=483 q=-0.0 size=N/A time=00:15:54.70 bitrate=N/A speed=20.1x    frame=23174 fps=483 q=-0.0 size=N/A time=00:16:05.58 bitrate=N/A speed=20.1x    frame=23430 fps=483 q=-0.0 size=N/A time=00:16:16.25 bitrate=N/A speed=20.1x    frame=23670 fps=483 q=-0.0 size=N/A time=00:16:26.25 bitrate=N/A speed=20.1x    frame=23916 fps=483 q=-0.0 size=N/A time=00:16:36.50 bitrate=N/A speed=20.1x    frame=24124 fps=482 q=-0.0 size=N/A time=00:16:45.16 bitrate=N/A speed=20.1x    frame=24272 fps=480 q=-0.0 size=N/A time=00:16:51.33 bitrate=N/A speed=  20x    frame=24440 fps=479 q=-0.0 size=N/A time=00:16:58.33 bitrate=N/A speed=19.9x    frame=24654 fps=478 q=-0.0 size=N/A time=00:17:07.25 bitrate=N/A speed=19.9x    frame=24886 fps=478 q=-0.0 size=N/A time=00:17:16.91 bitrate=N/A speed=19.9x    frame=25088 fps=477 q=-0.0 size=N/A time=00:17:25.33 bitrate=N/A speed=19.9x    frame=25316 fps=477 q=-0.0 size=N/A time=00:17:34.83 bitrate=N/A speed=19.9x    frame=25522 fps=476 q=-0.0 size=N/A time=00:17:43.41 bitrate=N/A speed=19.8x    frame=25728 fps=475 q=-0.0 size=N/A time=00:17:52.00 bitrate=N/A speed=19.8x    frame=25945 fps=475 q=-0.0 size=N/A time=00:18:01.04 bitrate=N/A speed=19.8x    [Parsed_ssim_10 @ 000002c1cf687800] SSIM Y:0.994928 (22.948036) U:0.996129 (24.122126) V:0.996384 (24.417437) All:0.995371 (23.344860)
[out#0/null @ 000002c1c2ab4a80] video:11215KiB audio:203928KiB subtitle:0KiB other streams:0KiB global headers:0KiB muxing overhead: unknown
frame=26100 fps=475 q=-0.0 Lsize=N/A time=00:18:07.50 bitrate=N/A speed=19.8x    
